<svg id="svg" version="1.1" xmlns="http://www.w3.org/2000/svg" xmlns:xlink="http://www.w3.org/1999/xlink" width="400" height="400" viewBox="0, 0, 400,400"><g id="svgg"><path id="path0" d="M183.600 36.408 C 182.390 36.580,179.600 36.929,177.400 37.184 C 164.034 38.733,149.464 42.702,137.000 48.187 C 132.840 50.018,131.319 50.731,127.131 52.812 C 121.843 55.439,113.633 60.047,111.727 61.458 C 111.026 61.976,110.349 62.400,110.222 62.400 C 109.377 62.400,99.897 69.407,94.600 73.947 C 78.987 87.327,65.857 103.059,56.998 119.000 C 55.247 122.150,49.200 134.215,49.200 134.558 C 49.200 134.680,48.688 135.909,48.063 137.290 C 46.673 140.358,43.600 148.527,43.600 149.155 C 43.600 149.406,43.421 149.923,43.203 150.305 C 42.857 150.913,40.638 158.413,39.626 162.400 C 38.987 164.920,37.635 172.920,37.193 176.800 C 36.955 178.890,36.573 182.040,36.342 183.800 C 35.804 187.917,35.812 212.113,36.353 216.243 C 36.580 217.979,36.965 221.200,37.208 223.400 C 37.451 225.600,37.805 228.210,37.995 229.200 C 38.184 230.190,38.544 232.170,38.795 233.600 C 41.624 249.749,51.498 273.294,62.715 290.640 C 70.797 303.138,85.586 319.240,98.200 329.274 C 101.375 331.800,109.481 337.600,109.835 337.600 C 109.964 337.600,110.819 338.120,111.735 338.755 C 118.741 343.616,145.513 356.400,148.686 356.400 C 148.975 356.400,149.523 356.570,149.905 356.777 C 150.578 357.143,155.090 358.540,159.600 359.779 C 184.382 366.589,235.256 364.903,250.095 356.780 C 250.477 356.571,251.031 356.400,251.327 356.400 C 251.622 356.400,254.369 355.396,257.432 354.168 C 285.817 342.790,305.177 329.346,324.214 307.792 C 328.953 302.426,337.600 291.033,337.600 290.154 C 337.600 290.040,338.032 289.374,338.561 288.673 C 342.805 283.049,352.606 262.715,355.851 252.800 C 356.175 251.810,356.607 250.640,356.811 250.200 C 357.014 249.760,357.531 248.140,357.958 246.600 C 358.386 245.060,359.185 242.180,359.735 240.200 C 361.103 235.275,362.332 228.001,363.655 217.000 C 364.289 211.727,364.291 188.230,363.658 183.200 C 363.395 181.110,362.987 177.870,362.752 176.000 C 360.127 155.141,352.515 134.558,339.453 113.000 C 323.336 86.400,294.871 61.785,266.000 49.481 C 265.230 49.153,263.700 48.480,262.600 47.985 C 260.536 47.057,255.561 45.178,252.400 44.132 C 251.410 43.804,250.240 43.379,249.800 43.187 C 247.917 42.365,238.495 39.696,236.200 39.335 C 235.540 39.231,233.200 38.816,231.000 38.411 C 228.800 38.007,225.200 37.468,223.000 37.212 C 220.800 36.957,217.688 36.580,216.084 36.374 C 212.633 35.931,186.775 35.958,183.600 36.408 M133.200 110.017 C 160.229 113.450,189.714 125.567,198.254 136.752 L 199.600 138.515 199.600 208.858 C 199.600 257.719,199.472 279.200,199.180 279.200 C 198.949 279.200,197.086 277.784,195.039 276.053 C 182.127 265.135,163.114 256.273,144.200 252.357 C 134.063 250.259,129.869 249.743,119.668 249.342 C 115.692 249.186,113.478 248.943,113.370 248.651 C 113.278 248.403,113.157 216.809,113.101 178.442 L 113.000 108.684 120.000 108.957 C 123.850 109.107,129.790 109.584,133.200 110.017 M289.101 178.900 L 289.000 249.000 285.800 249.081 C 281.321 249.195,271.449 249.969,268.700 250.421 C 261.050 251.681,258.750 252.132,253.381 253.430 C 236.457 257.521,218.960 266.192,206.887 276.470 C 205.252 277.861,203.709 279.000,203.457 279.000 C 202.985 279.000,202.524 141.606,202.988 138.992 C 203.266 137.419,206.161 134.137,209.304 131.830 C 210.677 130.822,211.980 129.854,212.200 129.679 C 217.854 125.179,239.349 115.900,248.000 114.225 C 248.770 114.075,249.760 113.791,250.200 113.592 C 251.532 112.989,262.607 110.911,269.200 110.026 C 275.334 109.203,277.711 109.034,285.301 108.879 L 289.202 108.800 289.101 178.900 M106.099 190.300 L 106.200 256.200 113.000 256.466 C 135.068 257.330,158.169 262.251,174.600 269.586 C 175.480 269.979,177.190 270.719,178.400 271.230 C 181.344 272.474,187.129 275.467,191.027 277.763 C 195.409 280.344,195.480 280.388,198.244 282.300 C 201.203 284.347,201.217 284.348,203.546 282.646 C 209.050 278.626,219.527 273.015,228.600 269.227 C 246.975 261.557,270.795 256.722,292.400 256.278 L 296.200 256.200 296.400 190.400 L 296.600 124.600 299.101 124.481 L 301.602 124.362 301.501 193.081 L 301.400 261.800 293.200 262.087 C 284.887 262.379,278.007 262.886,272.200 263.634 C 267.274 264.269,258.782 265.582,257.000 265.985 C 256.120 266.184,254.230 266.563,252.800 266.827 C 241.629 268.892,225.134 274.335,215.112 279.263 C 212.945 280.328,211.088 281.200,210.987 281.200 C 210.885 281.200,208.743 282.460,206.228 284.000 C 201.994 286.592,200.268 287.274,199.933 286.487 C 199.624 285.759,188.944 279.856,184.000 277.680 C 176.205 274.248,165.442 270.505,159.600 269.194 C 158.390 268.923,156.950 268.560,156.400 268.389 C 155.850 268.217,154.500 267.869,153.400 267.615 C 152.300 267.361,150.770 266.999,150.000 266.811 C 149.230 266.623,147.250 266.260,145.600 266.004 C 143.950 265.749,141.880 265.380,141.000 265.185 C 138.976 264.737,134.924 264.168,129.800 263.612 C 127.600 263.374,124.270 263.010,122.400 262.804 C 120.530 262.598,114.993 262.312,110.095 262.168 C 105.197 262.024,101.109 261.776,101.010 261.617 C 100.882 261.409,100.660 127.003,100.784 124.700 C 100.793 124.535,101.969 124.400,103.399 124.400 L 105.998 124.400 106.099 190.300 M93.699 205.500 L 93.800 270.200 97.600 270.281 C 105.814 270.456,127.191 271.787,131.600 272.399 C 133.030 272.597,136.000 272.959,138.200 273.204 C 160.683 275.705,182.348 281.463,190.862 287.201 C 196.837 291.228,205.645 291.523,210.500 287.860 C 216.493 283.338,227.362 279.756,247.000 275.830 C 254.169 274.396,265.107 272.985,279.600 271.624 C 283.257 271.281,298.289 270.515,306.000 270.279 L 308.600 270.200 308.800 205.600 L 309.000 141.000 311.600 141.000 L 314.200 141.000 314.264 186.600 C 314.300 211.680,314.210 242.190,314.064 254.400 L 313.800 276.600 303.200 276.861 C 281.703 277.390,266.295 278.555,250.600 280.836 C 246.326 281.457,239.564 282.638,237.000 283.211 C 221.431 286.692,217.594 287.990,214.400 290.854 C 209.137 295.574,193.434 295.747,188.364 291.141 C 186.347 289.309,184.875 288.444,182.352 287.608 C 179.287 286.592,172.820 284.807,170.600 284.363 C 169.720 284.188,168.190 283.853,167.200 283.621 C 166.210 283.388,164.410 283.010,163.200 282.781 C 161.990 282.552,160.100 282.188,159.000 281.972 C 157.900 281.757,155.740 281.413,154.200 281.209 C 152.660 281.005,150.050 280.643,148.400 280.404 C 134.608 278.407,111.367 276.845,94.933 276.812 C 91.816 276.805,89.001 276.699,88.679 276.575 C 88.166 276.378,88.083 267.734,88.025 208.575 L 87.958 140.800 90.778 140.800 L 93.598 140.800 93.699 205.500 " stroke="none" fill="#ed7b0e" fill-rule="evenodd"></path><path id="path1" d="M0.000 200.000 L 0.000 400.000 200.000 400.000 L 400.000 400.000 400.000 200.000 L 400.000 0.000 200.000 0.000 L 0.000 0.000 0.000 200.000 M216.084 36.374 C 217.688 36.580,220.800 36.957,223.000 37.212 C 225.200 37.468,228.800 38.007,231.000 38.411 C 233.200 38.816,235.540 39.231,236.200 39.335 C 238.495 39.696,247.917 42.365,249.800 43.187 C 250.240 43.379,251.410 43.804,252.400 44.132 C 255.561 45.178,260.536 47.057,262.600 47.985 C 263.700 48.480,265.230 49.153,266.000 49.481 C 289.324 59.421,311.264 76.404,329.452 98.600 C 345.964 118.749,359.510 150.236,362.752 176.000 C 362.987 177.870,363.395 181.110,363.658 183.200 C 364.291 188.230,364.289 211.727,363.655 217.000 C 362.332 228.001,361.103 235.275,359.735 240.200 C 359.185 242.180,358.386 245.060,357.958 246.600 C 357.531 248.140,357.014 249.760,356.811 250.200 C 356.607 250.640,356.175 251.810,355.851 252.800 C 352.606 262.715,342.805 283.049,338.561 288.673 C 338.032 289.374,337.600 290.040,337.600 290.154 C 337.600 291.033,328.953 302.426,324.214 307.792 C 305.177 329.346,285.817 342.790,257.432 354.168 C 254.369 355.396,251.622 356.400,251.327 356.400 C 251.031 356.400,250.477 356.571,250.095 356.780 C 235.256 364.903,184.382 366.589,159.600 359.779 C 155.090 358.540,150.578 357.143,149.905 356.777 C 149.523 356.570,148.975 356.400,148.686 356.400 C 145.513 356.400,118.741 343.616,111.735 338.755 C 110.819 338.120,109.964 337.600,109.835 337.600 C 109.481 337.600,101.375 331.800,98.200 329.274 C 85.586 319.240,70.797 303.138,62.715 290.640 C 51.498 273.294,41.624 249.749,38.795 233.600 C 38.544 232.170,38.184 230.190,37.995 229.200 C 37.805 228.210,37.451 225.600,37.208 223.400 C 36.965 221.200,36.580 217.979,36.353 216.243 C 35.812 212.113,35.804 187.917,36.342 183.800 C 36.573 182.040,36.955 178.890,37.193 176.800 C 37.635 172.920,38.987 164.920,39.626 162.400 C 40.638 158.413,42.857 150.913,43.203 150.305 C 43.421 149.923,43.600 149.406,43.600 149.155 C 43.600 148.527,46.673 140.358,48.063 137.290 C 48.688 135.909,49.200 134.680,49.200 134.558 C 49.200 134.215,55.247 122.150,56.998 119.000 C 65.857 103.059,78.987 87.327,94.600 73.947 C 99.897 69.407,109.377 62.400,110.222 62.400 C 110.349 62.400,111.026 61.976,111.727 61.458 C 113.633 60.047,121.843 55.439,127.131 52.812 C 131.319 50.731,132.840 50.018,137.000 48.187 C 149.464 42.702,164.034 38.733,177.400 37.184 C 179.600 36.929,182.390 36.580,183.600 36.408 C 186.775 35.958,212.633 35.931,216.084 36.374 M113.101 178.442 C 113.157 216.809,113.278 248.403,113.370 248.651 C 113.478 248.943,115.692 249.186,119.668 249.342 C 148.882 250.491,176.301 260.208,195.039 276.053 C 197.086 277.784,198.949 279.200,199.180 279.200 C 199.472 279.200,199.600 257.719,199.600 208.858 L 199.600 138.515 198.254 136.752 C 187.920 123.218,151.195 110.174,120.000 108.957 L 113.000 108.684 113.101 178.442 M278.400 109.077 C 272.320 109.315,252.714 112.454,250.200 113.592 C 249.760 113.791,248.770 114.075,248.000 114.225 C 239.349 115.900,217.854 125.179,212.200 129.679 C 211.980 129.854,210.677 130.822,209.304 131.830 C 206.161 134.137,203.266 137.419,202.988 138.992 C 202.524 141.606,202.985 279.000,203.457 279.000 C 203.709 279.000,205.252 277.861,206.887 276.470 C 218.960 266.192,236.457 257.521,253.381 253.430 C 258.750 252.132,261.050 251.681,268.700 250.421 C 271.449 249.969,281.321 249.195,285.800 249.081 L 289.000 249.000 289.101 178.900 L 289.202 108.800 285.301 108.879 C 283.156 108.923,280.050 109.012,278.400 109.077 M100.784 124.700 C 100.660 127.003,100.882 261.409,101.010 261.617 C 101.109 261.776,105.197 262.024,110.095 262.168 C 114.993 262.312,120.530 262.598,122.400 262.804 C 124.270 263.010,127.600 263.374,129.800 263.612 C 134.924 264.168,138.976 264.737,141.000 265.185 C 141.880 265.380,143.950 265.749,145.600 266.004 C 147.250 266.260,149.230 266.623,150.000 266.811 C 150.770 266.999,152.300 267.361,153.400 267.615 C 154.500 267.869,155.850 268.217,156.400 268.389 C 156.950 268.560,158.390 268.923,159.600 269.194 C 165.442 270.505,176.205 274.248,184.000 277.680 C 188.944 279.856,199.624 285.759,199.933 286.487 C 200.268 287.274,201.994 286.592,206.228 284.000 C 208.743 282.460,210.885 281.200,210.987 281.200 C 211.088 281.200,212.945 280.328,215.112 279.263 C 225.134 274.335,241.629 268.892,252.800 266.827 C 254.230 266.563,256.120 266.184,257.000 265.985 C 258.782 265.582,267.274 264.269,272.200 263.634 C 278.007 262.886,284.887 262.379,293.200 262.087 L 301.400 261.800 301.501 193.081 L 301.602 124.362 299.101 124.481 L 296.600 124.600 296.400 190.400 L 296.200 256.200 292.400 256.278 C 270.795 256.722,246.975 261.557,228.600 269.227 C 219.527 273.015,209.050 278.626,203.546 282.646 C 201.217 284.348,201.203 284.347,198.244 282.300 C 195.480 280.388,195.409 280.344,191.027 277.763 C 187.129 275.467,181.344 272.474,178.400 271.230 C 177.190 270.719,175.480 269.979,174.600 269.586 C 158.169 262.251,135.068 257.330,113.000 256.466 L 106.200 256.200 106.099 190.300 L 105.998 124.400 103.399 124.400 C 101.969 124.400,100.793 124.535,100.784 124.700 M88.025 208.575 C 88.083 267.734,88.166 276.378,88.679 276.575 C 89.001 276.699,91.816 276.805,94.933 276.812 C 111.367 276.845,134.608 278.407,148.400 280.404 C 150.050 280.643,152.660 281.005,154.200 281.209 C 155.740 281.413,157.900 281.757,159.000 281.972 C 160.100 282.188,161.990 282.552,163.200 282.781 C 164.410 283.010,166.210 283.388,167.200 283.621 C 168.190 283.853,169.720 284.188,170.600 284.363 C 172.820 284.807,179.287 286.592,182.352 287.608 C 184.875 288.444,186.347 289.309,188.364 291.141 C 193.434 295.747,209.137 295.574,214.400 290.854 C 217.594 287.990,221.431 286.692,237.000 283.211 C 239.564 282.638,246.326 281.457,250.600 280.836 C 257.381 279.850,261.864 279.336,271.600 278.425 C 278.157 277.812,291.590 277.147,303.200 276.861 L 313.800 276.600 314.064 254.400 C 314.210 242.190,314.300 211.680,314.264 186.600 L 314.200 141.000 311.600 141.000 L 309.000 141.000 308.800 205.600 L 308.600 270.200 306.000 270.279 C 298.289 270.515,283.257 271.281,279.600 271.624 C 265.107 272.985,254.169 274.396,247.000 275.830 C 227.362 279.756,216.493 283.338,210.500 287.860 C 205.645 291.523,196.837 291.228,190.862 287.201 C 182.348 281.463,160.683 275.705,138.200 273.204 C 136.000 272.959,133.030 272.597,131.600 272.399 C 127.191 271.787,105.814 270.456,97.600 270.281 L 93.800 270.200 93.699 205.500 L 93.598 140.800 90.778 140.800 L 87.958 140.800 88.025 208.575 " stroke="none" fill="#f9f9f8" fill-rule="evenodd"></path></g></svg>